<svg width="140" height="140" viewBox="0 0 140 140" fill="none" xmlns="http://www.w3.org/2000/svg">
<path d="M119.497 20.5023C106.276 7.28137 88.6977 0 70 0C51.3021 0 33.7233 7.28137 20.5023 20.5023C7.28109 33.7236 0 51.3023 0 70C0 88.6977 7.28109 106.276 20.5023 119.497C33.7236 132.719 51.3021 140 70 140C88.6977 140 106.276 132.719 119.497 119.497C132.719 106.276 140 88.6977 140 70C140 51.3023 132.719 33.7239 119.497 20.5023ZM70 131.797C35.925 131.797 8.20312 104.075 8.20312 70C8.20312 35.925 35.925 8.20312 70 8.20312C104.075 8.20312 131.797 35.925 131.797 70C131.797 104.075 104.075 131.797 70 131.797Z" fill="#1DB563"/>
<path d="M103.444 47.5395C101.842 45.9383 99.245 45.9383 97.6434 47.5398L61.4242 83.7591L42.3582 64.6931C40.7567 63.0916 38.1596 63.0916 36.5578 64.6931C34.956 66.2946 34.956 68.8917 36.5578 70.4935L58.5238 92.4596C59.3247 93.2605 60.3745 93.6608 61.4239 93.6608C62.4734 93.6608 63.5234 93.2602 64.324 92.4596L103.444 53.34C105.045 51.7384 105.045 49.1413 103.444 47.5395Z" fill="#1DB563"/>
</svg>
