<?xml version="1.0" encoding="utf-8"?>
<!-- Generator: Adobe Illustrator 22.1.0, SVG Export Plug-In . SVG Version: 6.00 Build 0)  -->
<svg version="1.1" id="Слой_1" xmlns="http://www.w3.org/2000/svg" xmlns:xlink="http://www.w3.org/1999/xlink" x="0px" y="0px"
	 viewBox="0 0 15 16" style="enable-background:new 0 0 15 16;" xml:space="preserve">
<style type="text/css">
	.st0{opacity:0.4;fill:#B51D1D;}
</style>
<path class="st0" d="M13.7,2.6H1.3C0.6,2.6,0,3.2,0,3.9v8.7c0,0.7,0.6,1.3,1.3,1.3h12.4c0.7,0,1.3-0.6,1.3-1.3V3.9
	C15,3.2,14.4,2.6,13.7,2.6z M13.5,3.4l-6,5.9l-6-5.9H13.5z M0.9,12.3V4l4.2,4.1L0.9,12.3z M1.5,13l4.2-4.2l1.5,1.4
	c0.2,0.2,0.4,0.2,0.6,0l1.4-1.4l4.2,4.1H1.5z M14.1,12.3L9.9,8.2L14.1,4V12.3z"/>
</svg>
