<?xml version="1.0" encoding="utf-8"?>
<!-- Generator: Adobe Illustrator 22.1.0, SVG Export Plug-In . SVG Version: 6.00 Build 0)  -->
<svg version="1.1" id="Слой_1" xmlns="http://www.w3.org/2000/svg" xmlns:xlink="http://www.w3.org/1999/xlink" x="0px" y="0px"
	 viewBox="0 0 15 16" style="enable-background:new 0 0 15 16;" xml:space="preserve">
<style type="text/css">
	.st0{opacity:0.4;}
	.st1{fill:#AF2020;}
</style>
<g class="st0">
	<path class="st1" d="M7.5,15.5c-1.8,0-3.5-0.6-4.8-1.8c-0.3-0.3-0.6-0.6-0.9-0.9C0.6,11.5,0,9.8,0,8c0-2,0.8-3.9,2.2-5.3
		c1.4-1.4,3.3-2.2,5.3-2.2c2,0,3.9,0.8,5.3,2.2C14.2,4.1,15,6,15,8c0,1.8-0.6,3.5-1.8,4.8c-0.3,0.3-0.6,0.6-0.9,0.9
		C11,14.9,9.3,15.5,7.5,15.5z M7.5,1.4C3.9,1.4,0.9,4.4,0.9,8c0,1.5,0.5,3,1.5,4.2C2.7,12.5,3,12.8,3.3,13c1.2,1,2.7,1.6,4.2,1.6
		s3.1-0.6,4.2-1.6c0.3-0.2,0.5-0.5,0.8-0.8c1-1.2,1.5-2.7,1.5-4.2C14.1,4.4,11.1,1.4,7.5,1.4z"/>
	<path class="st1" d="M7.5,8C5.9,8,4.7,6.7,4.7,5.2s1.3-2.8,2.8-2.8s2.8,1.3,2.8,2.8S9.1,8,7.5,8z M7.5,3.3c-1,0-1.9,0.8-1.9,1.9
		s0.8,1.9,1.9,1.9s1.9-0.8,1.9-1.9S8.5,3.3,7.5,3.3z"/>
	<path class="st1" d="M12,13.8c0,0-0.1,0-0.1,0c-0.3-0.1-0.4-0.3-0.3-0.6c0.1-0.3,0.1-0.7,0.1-1C11.7,9.9,9.9,8,7.6,8L7.5,8L7.4,8
		c-2.3,0-4.2,1.9-4.2,4.2c0,0.3,0,0.7,0.1,1c0.1,0.3-0.1,0.5-0.3,0.6c-0.3,0.1-0.5-0.1-0.6-0.3c-0.1-0.4-0.2-0.8-0.2-1.3
		c0-1.4,0.5-2.7,1.5-3.6c1-1,2.2-1.5,3.6-1.5c0,0,0,0,0,0l0.1,0l0.1,0c0,0,0,0,0,0c1.4,0,2.6,0.6,3.6,1.5c1,1,1.5,2.3,1.5,3.6
		c0,0.4-0.1,0.8-0.2,1.3C12.4,13.7,12.3,13.8,12,13.8z"/>
</g>
</svg>
