<?xml version="1.0" encoding="utf-8"?>
<!-- Generator: Adobe Illustrator 22.1.0, SVG Export Plug-In . SVG Version: 6.00 Build 0)  -->
<svg version="1.1" id="Слой_1" xmlns="http://www.w3.org/2000/svg" xmlns:xlink="http://www.w3.org/1999/xlink" x="0px" y="0px"
	 viewBox="0 0 15 16" style="enable-background:new 0 0 15 16;" xml:space="preserve">
<style type="text/css">
	.st0{opacity:0.4;fill:#B51D1D;}
</style>
<path class="st0" d="M10.8,16c-0.5,0-1-0.1-1.4-0.3c-2.1-0.8-4-2.1-5.6-3.8C2.2,10.3,1,8.2,0.3,6C0,5.3-0.1,4.6,0,3.9
	c0.1-0.7,0.3-1.4,0.7-1.9c0.4-0.6,0.9-1.1,1.5-1.4C2.8,0.2,3.5,0,4.2,0c0.2,0,0.4,0.2,0.5,0.4l0.7,3.7c0,0.2,0,0.3-0.1,0.5L4,5.9
	c1.2,2.5,3.1,4.6,5.5,5.8l1.3-1.3c0.1-0.1,0.3-0.2,0.4-0.1l3.4,0.8c0.2,0,0.4,0.3,0.4,0.5c0,0.8-0.2,1.5-0.5,2.1
	c-0.3,0.6-0.8,1.2-1.3,1.6c-0.5,0.4-1.2,0.7-1.8,0.8C11.2,16,11,16,10.8,16z M3.9,1C2.9,1.1,2.1,1.7,1.5,2.5
	C0.9,3.4,0.8,4.6,1.1,5.7c1.4,4.2,4.6,7.6,8.5,9.1c1,0.4,2.1,0.2,3-0.4c0.8-0.6,1.3-1.5,1.4-2.5l-2.8-0.6l-1.3,1.4
	c-0.1,0.1-0.4,0.2-0.5,0.1C6.6,11.4,4.4,8.9,3,6C3,5.8,3,5.6,3.1,5.4L4.5,4L3.9,1z"/>
</svg>
